<?xml version="1.0" encoding="UTF-8"?>
<svg id="_レイヤー_1" data-name="レイヤー 1" xmlns="http://www.w3.org/2000/svg" viewBox="0 0 1197.39 592.74">
  <path d="M1163.96,48.21c2.73,3.17,4.22,14.09,2.16,18.08s-16.46,16.83-20.83,22.14c-12.14,14.76-21.42,31.62-31.6,47.34-43.07,66.48-82.4,133.41-133.35,194.39-83.68,100.14-187.79,173.34-306.41,227.18-27.69,12.57-57.98,25.36-87.57,31.34-9.73,1.97-19.38,7.95-28.64.2-1.38-1.16-6.27-5.94-7.6-7.39-14.69-15.97,13.56-19.88,21.46-25.58,3.36-2.42.36-5.09,6.95-1.81,8.17,4.06,6.46,6.93,17.95,4.74,17.74-3.39,49.09-17.71,66.46-25.48,129.2-57.74,229.78-134.72,316.89-245.71,52.76-67.22,95.87-145.27,139.64-220.05,3.87-6.61,8.2-21.01,15.74-23.23,2.92-.86,13.84-2.81,16.57-2.53.89.09,11.72,5.84,12.17,6.36Z"/>
  <path d="M140.02,87.85l26.12,3.35c22.88,3.84,47.28,27.36,47.62,51.1.62,42.75-58.12,120.74-85.01,153.79-6.37,7.83-23.91,30.85-33.35,32.6-11.38,2.11-28.99-.55-24.97-15.97,3.03-11.59,15.61-19.91,23.54-28.42,19.67-21.1,36.57-43.24,52.53-67.38,15.81-23.9,27.67-39.43,30.28-69.64.9-10.35.3-19.65-8.39-26.37-7.63-5.89-22.37-7.73-31.96-8.06-5.3-.18-7.92.76-10.72,5.35-10.34,16.96-17.64,37.44-29.34,54.6-8.58,12.58-40.11,49.43-52.34,56.57-7.29,4.26-8.64,4.11-16.55,3.63-1.44-.09-2.95,1.13-4.78.67-2.18-.55-8.49-9.12-8.61-11.29-.14-2.47,1.83-9.45,3.15-11.8,5.24-9.34,25.44-24.85,33.75-34.2,13.39-15.07,25.64-33.59,33.95-51.95-4.71-4.25-10.7.19-15.54,1.42s-10.8,2.13-15.44,3.55c-14.2,4.33-23.36,10.52-39.71,10.26l-14.25-6.78c1.77-8.68,4.18-15.29,13.02-18.44,9.94-3.54,21.62-7.43,31.74-10.23,18.75-5.18,38.21-8.21,56.94-13.52,3.48-12.03,10.16-23.53,14.27-35.18,4.88-13.85,7.74-29.86,13.46-43.49,6.47-15.42,22.37-15.8,31.3-2.34,7.27,10.95,1.55,12.78-2.33,21.32-5.27,11.61-9.41,28.49-13.99,40.96-1.86,5.06-5.66,9.71-4.39,15.89Z"/>
  <path d="M685.96,151.34c-11.56,11.11-27.05,23.95-40.45,32.97-6.19,4.17-45.97,23.64-46.81,26.19s6.24,10.3,8.35,12.38c9.28,9.13,23.78,16.84,35.53,22.42,5.78,2.75,9.96,2.06,13.54,9.45,2.87,5.93.76,11.89-.7,17.9-7.81.14-13.87,4.89-22.14,3.11-.6-.13-1.13-1.89-2.5-2.65-15.13-8.38-29.56-14.39-43.11-25.87-5.73-4.86-28.49-26.91-32.02-32.15-4.53-6.71-2.97-8.79-4.25-15.51s-5.83-11.27-5.84-20.21c-.02-12.99,17.09-13.37,26.36-11.29,8.01,1.8,11.45,16.18,13.87,17.6,3.34,1.96,7.17-3.22,9.49-4.64,36.97-22.65,55.81-34.13,84.29-67.59,3.92-4.6,10.31-8.06,10.97-14.5-4.83-.13-9.69.14-14.53.04-35.54-.73-81.94,2.88-116.65,11.18-18.67,4.46-36.69,14.15-56.15,14.8-3.27.11-6.79.2-9.81-1.27-7.48-3.63-10.08-11.14-8.49-19.02,1-4.93,7.78-8.69,12.32-9.67,16.06-3.45,35.36-5.27,52.01-7.95,41.89-6.75,142.95-23.81,179.24-5.55.67.34,7.31,5.99,7.53,6.46,1.13,2.49.81,10.11-.24,12.72-17.02,16.45-32.74,34.27-49.8,50.66Z"/>
  <path d="M349.84,54.36c-.85,6.14,3.32,9.33,3.94,15.52s-3.59,39.28-1.17,41.03c14.14-2.14,29.1-6.03,43.53-5.42,2.2.09,8.53.94,10.44,1.57s13.39,8.82,13.84,10.15c2.82,8.29-2.55,14.4-7.87,19.83-8.5,8.68-24.9,17.27-31.67,25.27-1.12,1.32-1.8,2.17-1.43,4.04,8.52,1.6,16.39,5.72,24.72,7.82,8.48,2.14,28.11,2.68,33.69,7.37,4.9,4.12,7.03,14.44,1.16,18.23-20.73,13.4-47.09.49-68.58-3.38l-8.72,43.87c-4.31,12.2-8.77,24.77-14.77,36.26-2.81,5.38-3.65,7.84-10.38,8.6-8.09.91-12.47-.06-17.87-6.15-8.81-9.93-1.4-11.89,3.03-19.82,4.42-7.93,9.49-22.84,11.29-31.74.57-2.79,3.52-23.2,2.85-24.23-2.08-3.21-7,3.39-8.59,4.42-8.81,5.7-17.81,14.4-26.61,18.33-16.41,7.35-20.36,1.62-26.91-13.02,2.45-8.35,9.75-9.01,15.66-12.33,12.47-7,18.02-12.54,28.53-21.41,13.96-11.76,30.09-24.15,43.1-36.82,1.19-1.15,7.98-7.55,6.49-8.99-10.07,3.41-20.55,5.48-30.03,10.36-14.4,1.49-30.32,15.54-42.61,19.26-1.03.31-6,1.16-6.96,1.13-1.22-.04-10.76-6.5-11.48-7.51-3.62-5.09,1.38-13.27,5.78-16.37,4.87-3.43,21.98-12.13,27.68-14.24,2.9-1.07,11.1-1.9,12.2-3.76,1.64-18.31,2.79-37.42,7.93-55.18.43-1.49,2.36-7.15,2.92-8.08,2.04-3.38,11.96-.88,15.83-1.62l-1.99-2.98h2.99Z"/>
  <path d="M1170.59,387.29c19.63,16.3,41.44,38.79,13.57,60.7-18.67,14.68-47.44,25.32-71.15,20.34-8.83-1.86-23.33-20.96-25.22-29.74-1.37-6.37.49-13.03-1.25-19.38,7.02-5.27,3.94-4.94,4.78-11.01,1.21-8.77,10.71-23.81,18.04-29.02,7.42-5.27,26.97-11.34,35.64-8.78,9.61,2.84,18.4,10.89,25.6,16.87ZM1166.98,420.9c-7.3-5.82-28.01-25.51-37.74-16.54-8.81,8.12-11.48,21.17-1.87,29.64,7.58,6.68,16.89,5.55,25.88,2.07,1.53-.59,12.52-6.4,13.02-6.96,1.34-1.5,2.1-6.56.72-8.21Z"/>
  <path d="M814.26,180.98c-8.16-21.66-6.8-46.42-5.01-69.86.42-5.48-1.09-14.62,1.79-19.19,4.98-7.92,13.03-8.97,21.43-6.53,6.03,1.75,11.56,4.56,12.78,11.24.87,4.78-4.28,21.6-4.77,28.73-1.33,19.31,1.71,59.27,14.13,74.77,2.29,2.85,6.94,4.61,8.42,8.6l-.6,15.51c-13.44,19.48-29.7,10.05-38.14-7.79-2.73-5.77-9.67-24.58-10.63-30.42-.35-2.12.73-4.69.59-5.05Z"/>
  <path d="M881.66,79.11c.65-1.13,9.47-5.84,11.33-6.14,12.27-1.94,22.12,4.22,24.19,16.66,3.58,21.58,4.15,68.54-2.53,88.91-2.86,8.71-12.51,19.26-20.64,9.19-7.89-9.77-4.8-33.12-5.58-45.37-.68-10.66-1.59-24.49-3.07-34.9-.87-6.09-6.62-23.3-3.7-28.34Z"/>
</svg>